<svg xmlns="http://www.w3.org/2000/svg" width="387" height="287" viewBox="0 0 387 287"><defs><style>.a{fill:#9f9a9a;}</style></defs><g transform="translate(11 -1286)"><circle class="a" cx="4" cy="4" r="4" transform="translate(9 1286)"/><circle class="a" cx="4" cy="4" r="4" transform="translate(29 1286)"/><circle class="a" cx="4" cy="4" r="4" transform="translate(49 1286)"/><circle class="a" cx="4" cy="4" r="4" transform="translate(69 1286)"/><circle class="a" cx="4" cy="4" r="4" transform="translate(89 1286)"/><circle class="a" cx="4" cy="4" r="4" transform="translate(109 1286)"/><circle class="a" cx="4" cy="4" r="4" transform="translate(129 1286)"/><ellipse class="a" cx="4.5" cy="4" rx="4.5" ry="4" transform="translate(148 1286)"/><ellipse class="a" cx="4.5" cy="4" rx="4.5" ry="4" transform="translate(168 1286)"/><ellipse class="a" cx="4.5" cy="4" rx="4.5" ry="4" transform="translate(188 1286)"/><ellipse class="a" cx="4.5" cy="4" rx="4.5" ry="4" transform="translate(208 1286)"/><circle class="a" cx="4" cy="4" r="4" transform="translate(228 1286)"/><circle class="a" cx="4" cy="4" r="4" transform="translate(248 1286)"/><circle class="a" cx="4" cy="4" r="4" transform="translate(268 1286)"/><circle class="a" cx="4" cy="4" r="4" transform="translate(288 1286)"/><circle class="a" cx="4" cy="4" r="4" transform="translate(308 1286)"/><circle class="a" cx="4" cy="4" r="4" transform="translate(328 1286)"/><circle class="a" cx="4" cy="4" r="4" transform="translate(348 1286)"/><circle class="a" cx="4" cy="4" r="4" transform="translate(368 1286)"/><circle class="a" cx="4" cy="4" r="4" transform="translate(9 1309)"/><circle class="a" cx="4" cy="4" r="4" transform="translate(29 1309)"/><circle class="a" cx="4" cy="4" r="4" transform="translate(49 1309)"/><circle class="a" cx="4" cy="4" r="4" transform="translate(69 1309)"/><circle class="a" cx="4" cy="4" r="4" transform="translate(89 1309)"/><circle class="a" cx="4" cy="4" r="4" transform="translate(109 1309)"/><circle class="a" cx="4" cy="4" r="4" transform="translate(129 1309)"/><ellipse class="a" cx="4.5" cy="4" rx="4.5" ry="4" transform="translate(148 1309)"/><ellipse class="a" cx="4.5" cy="4" rx="4.5" ry="4" transform="translate(168 1309)"/><ellipse class="a" cx="4.5" cy="4" rx="4.5" ry="4" transform="translate(188 1309)"/><ellipse class="a" cx="4.5" cy="4" rx="4.5" ry="4" transform="translate(208 1309)"/><circle class="a" cx="4" cy="4" r="4" transform="translate(228 1309)"/><circle class="a" cx="4" cy="4" r="4" transform="translate(248 1309)"/><circle class="a" cx="4" cy="4" r="4" transform="translate(268 1309)"/><circle class="a" cx="4" cy="4" r="4" transform="translate(288 1309)"/><circle class="a" cx="4" cy="4" r="4" transform="translate(308 1309)"/><circle class="a" cx="4" cy="4" r="4" transform="translate(328 1309)"/><circle class="a" cx="4" cy="4" r="4" transform="translate(348 1309)"/><circle class="a" cx="4" cy="4" r="4" transform="translate(368 1309)"/><ellipse class="a" cx="4" cy="4.5" rx="4" ry="4.5" transform="translate(9 1332)"/><ellipse class="a" cx="4" cy="4.5" rx="4" ry="4.5" transform="translate(29 1332)"/><ellipse class="a" cx="4" cy="4.5" rx="4" ry="4.5" transform="translate(49 1332)"/><ellipse class="a" cx="4" cy="4.5" rx="4" ry="4.5" transform="translate(69 1332)"/><ellipse class="a" cx="4" cy="4.5" rx="4" ry="4.5" transform="translate(89 1332)"/><ellipse class="a" cx="4" cy="4.5" rx="4" ry="4.5" transform="translate(109 1332)"/><ellipse class="a" cx="4" cy="4.5" rx="4" ry="4.5" transform="translate(129 1332)"/><circle class="a" cx="4.5" cy="4.5" r="4.5" transform="translate(148 1332)"/><circle class="a" cx="4.5" cy="4.5" r="4.5" transform="translate(168 1332)"/><circle class="a" cx="4.5" cy="4.5" r="4.5" transform="translate(188 1332)"/><circle class="a" cx="4.5" cy="4.5" r="4.5" transform="translate(208 1332)"/><ellipse class="a" cx="4" cy="4.5" rx="4" ry="4.5" transform="translate(228 1332)"/><ellipse class="a" cx="4" cy="4.5" rx="4" ry="4.5" transform="translate(248 1332)"/><ellipse class="a" cx="4" cy="4.5" rx="4" ry="4.5" transform="translate(268 1332)"/><ellipse class="a" cx="4" cy="4.5" rx="4" ry="4.5" transform="translate(288 1332)"/><ellipse class="a" cx="4" cy="4.5" rx="4" ry="4.5" transform="translate(308 1332)"/><ellipse class="a" cx="4" cy="4.5" rx="4" ry="4.5" transform="translate(328 1332)"/><ellipse class="a" cx="4" cy="4.5" rx="4" ry="4.5" transform="translate(348 1332)"/><ellipse class="a" cx="4" cy="4.5" rx="4" ry="4.5" transform="translate(368 1332)"/><circle class="a" cx="4" cy="4" r="4" transform="translate(9 1356)"/><circle class="a" cx="4" cy="4" r="4" transform="translate(29 1356)"/><circle class="a" cx="4" cy="4" r="4" transform="translate(49 1356)"/><circle class="a" cx="4" cy="4" r="4" transform="translate(69 1356)"/><circle class="a" cx="4" cy="4" r="4" transform="translate(89 1356)"/><circle class="a" cx="4" cy="4" r="4" transform="translate(109 1356)"/><circle class="a" cx="4" cy="4" r="4" transform="translate(129 1356)"/><ellipse class="a" cx="4.5" cy="4" rx="4.5" ry="4" transform="translate(148 1356)"/><ellipse class="a" cx="4.5" cy="4" rx="4.5" ry="4" transform="translate(168 1356)"/><ellipse class="a" cx="4.5" cy="4" rx="4.5" ry="4" transform="translate(188 1356)"/><ellipse class="a" cx="4.5" cy="4" rx="4.5" ry="4" transform="translate(208 1356)"/><circle class="a" cx="4" cy="4" r="4" transform="translate(228 1356)"/><circle class="a" cx="4" cy="4" r="4" transform="translate(248 1356)"/><circle class="a" cx="4" cy="4" r="4" transform="translate(268 1356)"/><circle class="a" cx="4" cy="4" r="4" transform="translate(288 1356)"/><circle class="a" cx="4" cy="4" r="4" transform="translate(308 1356)"/><circle class="a" cx="4" cy="4" r="4" transform="translate(328 1356)"/><circle class="a" cx="4" cy="4" r="4" transform="translate(348 1356)"/><circle class="a" cx="4" cy="4" r="4" transform="translate(368 1356)"/><circle class="a" cx="4" cy="4" r="4" transform="translate(9 1379)"/><circle class="a" cx="4" cy="4" r="4" transform="translate(29 1379)"/><circle class="a" cx="4" cy="4" r="4" transform="translate(49 1379)"/><circle class="a" cx="4" cy="4" r="4" transform="translate(69 1379)"/><circle class="a" cx="4" cy="4" r="4" transform="translate(89 1379)"/><circle class="a" cx="4" cy="4" r="4" transform="translate(109 1379)"/><circle class="a" cx="4" cy="4" r="4" transform="translate(129 1379)"/><ellipse class="a" cx="4.5" cy="4" rx="4.5" ry="4" transform="translate(148 1379)"/><ellipse class="a" cx="4.5" cy="4" rx="4.5" ry="4" transform="translate(168 1379)"/><ellipse class="a" cx="4.5" cy="4" rx="4.5" ry="4" transform="translate(188 1379)"/><ellipse class="a" cx="4.5" cy="4" rx="4.5" ry="4" transform="translate(208 1379)"/><circle class="a" cx="4" cy="4" r="4" transform="translate(228 1379)"/><circle class="a" cx="4" cy="4" r="4" transform="translate(248 1379)"/><circle class="a" cx="4" cy="4" r="4" transform="translate(268 1379)"/><circle class="a" cx="4" cy="4" r="4" transform="translate(288 1379)"/><circle class="a" cx="4" cy="4" r="4" transform="translate(308 1379)"/><circle class="a" cx="4" cy="4" r="4" transform="translate(328 1379)"/><circle class="a" cx="4" cy="4" r="4" transform="translate(348 1379)"/><circle class="a" cx="4" cy="4" r="4" transform="translate(368 1379)"/><circle class="a" cx="4" cy="4" r="4" transform="translate(9 1402)"/><circle class="a" cx="4" cy="4" r="4" transform="translate(29 1402)"/><circle class="a" cx="4" cy="4" r="4" transform="translate(49 1402)"/><circle class="a" cx="4" cy="4" r="4" transform="translate(69 1402)"/><circle class="a" cx="4" cy="4" r="4" transform="translate(89 1402)"/><circle class="a" cx="4" cy="4" r="4" transform="translate(109 1402)"/><circle class="a" cx="4" cy="4" r="4" transform="translate(129 1402)"/><ellipse class="a" cx="4.5" cy="4" rx="4.5" ry="4" transform="translate(148 1402)"/><ellipse class="a" cx="4.5" cy="4" rx="4.5" ry="4" transform="translate(168 1402)"/><ellipse class="a" cx="4.5" cy="4" rx="4.5" ry="4" transform="translate(188 1402)"/><ellipse class="a" cx="4.5" cy="4" rx="4.5" ry="4" transform="translate(208 1402)"/><circle class="a" cx="4" cy="4" r="4" transform="translate(228 1402)"/><circle class="a" cx="4" cy="4" r="4" transform="translate(248 1402)"/><circle class="a" cx="4" cy="4" r="4" transform="translate(268 1402)"/><circle class="a" cx="4" cy="4" r="4" transform="translate(288 1402)"/><circle class="a" cx="4" cy="4" r="4" transform="translate(308 1402)"/><circle class="a" cx="4" cy="4" r="4" transform="translate(328 1402)"/><circle class="a" cx="4" cy="4" r="4" transform="translate(348 1402)"/><circle class="a" cx="4" cy="4" r="4" transform="translate(368 1402)"/><ellipse class="a" cx="4" cy="4.5" rx="4" ry="4.5" transform="translate(9 1425)"/><ellipse class="a" cx="4" cy="4.5" rx="4" ry="4.5" transform="translate(29 1425)"/><ellipse class="a" cx="4" cy="4.5" rx="4" ry="4.5" transform="translate(49 1425)"/><ellipse class="a" cx="4" cy="4.5" rx="4" ry="4.5" transform="translate(69 1425)"/><ellipse class="a" cx="4" cy="4.5" rx="4" ry="4.5" transform="translate(89 1425)"/><ellipse class="a" cx="4" cy="4.5" rx="4" ry="4.5" transform="translate(109 1425)"/><ellipse class="a" cx="4" cy="4.5" rx="4" ry="4.5" transform="translate(129 1425)"/><circle class="a" cx="4.5" cy="4.5" r="4.5" transform="translate(148 1425)"/><circle class="a" cx="4.5" cy="4.5" r="4.5" transform="translate(168 1425)"/><circle class="a" cx="4.5" cy="4.5" r="4.5" transform="translate(188 1425)"/><circle class="a" cx="4.5" cy="4.5" r="4.5" transform="translate(208 1425)"/><ellipse class="a" cx="4" cy="4.5" rx="4" ry="4.5" transform="translate(228 1425)"/><ellipse class="a" cx="4" cy="4.5" rx="4" ry="4.5" transform="translate(248 1425)"/><ellipse class="a" cx="4" cy="4.5" rx="4" ry="4.5" transform="translate(268 1425)"/><ellipse class="a" cx="4" cy="4.5" rx="4" ry="4.5" transform="translate(288 1425)"/><ellipse class="a" cx="4" cy="4.5" rx="4" ry="4.5" transform="translate(308 1425)"/><ellipse class="a" cx="4" cy="4.5" rx="4" ry="4.5" transform="translate(328 1425)"/><ellipse class="a" cx="4" cy="4.5" rx="4" ry="4.5" transform="translate(348 1425)"/><ellipse class="a" cx="4" cy="4.5" rx="4" ry="4.5" transform="translate(368 1425)"/><circle class="a" cx="4" cy="4" r="4" transform="translate(9 1449)"/><circle class="a" cx="4" cy="4" r="4" transform="translate(29 1449)"/><circle class="a" cx="4" cy="4" r="4" transform="translate(49 1449)"/><circle class="a" cx="4" cy="4" r="4" transform="translate(69 1449)"/><circle class="a" cx="4" cy="4" r="4" transform="translate(89 1449)"/><circle class="a" cx="4" cy="4" r="4" transform="translate(109 1449)"/><circle class="a" cx="4" cy="4" r="4" transform="translate(129 1449)"/><ellipse class="a" cx="4.5" cy="4" rx="4.5" ry="4" transform="translate(148 1449)"/><ellipse class="a" cx="4.5" cy="4" rx="4.5" ry="4" transform="translate(168 1449)"/><ellipse class="a" cx="4.5" cy="4" rx="4.5" ry="4" transform="translate(188 1449)"/><ellipse class="a" cx="4.5" cy="4" rx="4.5" ry="4" transform="translate(208 1449)"/><circle class="a" cx="4" cy="4" r="4" transform="translate(228 1449)"/><circle class="a" cx="4" cy="4" r="4" transform="translate(248 1449)"/><circle class="a" cx="4" cy="4" r="4" transform="translate(268 1449)"/><circle class="a" cx="4" cy="4" r="4" transform="translate(288 1449)"/><circle class="a" cx="4" cy="4" r="4" transform="translate(308 1449)"/><circle class="a" cx="4" cy="4" r="4" transform="translate(328 1449)"/><circle class="a" cx="4" cy="4" r="4" transform="translate(348 1449)"/><circle class="a" cx="4" cy="4" r="4" transform="translate(368 1449)"/><circle class="a" cx="4" cy="4" r="4" transform="translate(9 1472)"/><circle class="a" cx="4" cy="4" r="4" transform="translate(29 1472)"/><circle class="a" cx="4" cy="4" r="4" transform="translate(49 1472)"/><circle class="a" cx="4" cy="4" r="4" transform="translate(69 1472)"/><circle class="a" cx="4" cy="4" r="4" transform="translate(89 1472)"/><circle class="a" cx="4" cy="4" r="4" transform="translate(109 1472)"/><circle class="a" cx="4" cy="4" r="4" transform="translate(129 1472)"/><ellipse class="a" cx="4.5" cy="4" rx="4.5" ry="4" transform="translate(148 1472)"/><ellipse class="a" cx="4.5" cy="4" rx="4.5" ry="4" transform="translate(168 1472)"/><ellipse class="a" cx="4.5" cy="4" rx="4.5" ry="4" transform="translate(188 1472)"/><ellipse class="a" cx="4.5" cy="4" rx="4.5" ry="4" transform="translate(208 1472)"/><circle class="a" cx="4" cy="4" r="4" transform="translate(228 1472)"/><circle class="a" cx="4" cy="4" r="4" transform="translate(248 1472)"/><circle class="a" cx="4" cy="4" r="4" transform="translate(268 1472)"/><circle class="a" cx="4" cy="4" r="4" transform="translate(288 1472)"/><circle class="a" cx="4" cy="4" r="4" transform="translate(308 1472)"/><circle class="a" cx="4" cy="4" r="4" transform="translate(328 1472)"/><circle class="a" cx="4" cy="4" r="4" transform="translate(348 1472)"/><circle class="a" cx="4" cy="4" r="4" transform="translate(368 1472)"/><circle class="a" cx="4" cy="4" r="4" transform="translate(9 1495)"/><circle class="a" cx="4" cy="4" r="4" transform="translate(29 1495)"/><circle class="a" cx="4" cy="4" r="4" transform="translate(49 1495)"/><circle class="a" cx="4" cy="4" r="4" transform="translate(69 1495)"/><circle class="a" cx="4" cy="4" r="4" transform="translate(89 1495)"/><circle class="a" cx="4" cy="4" r="4" transform="translate(109 1495)"/><circle class="a" cx="4" cy="4" r="4" transform="translate(129 1495)"/><ellipse class="a" cx="4.5" cy="4" rx="4.5" ry="4" transform="translate(148 1495)"/><ellipse class="a" cx="4.5" cy="4" rx="4.5" ry="4" transform="translate(168 1495)"/><ellipse class="a" cx="4.5" cy="4" rx="4.5" ry="4" transform="translate(188 1495)"/><ellipse class="a" cx="4.5" cy="4" rx="4.5" ry="4" transform="translate(208 1495)"/><circle class="a" cx="4" cy="4" r="4" transform="translate(228 1495)"/><circle class="a" cx="4" cy="4" r="4" transform="translate(248 1495)"/><circle class="a" cx="4" cy="4" r="4" transform="translate(268 1495)"/><circle class="a" cx="4" cy="4" r="4" transform="translate(288 1495)"/><circle class="a" cx="4" cy="4" r="4" transform="translate(308 1495)"/><circle class="a" cx="4" cy="4" r="4" transform="translate(328 1495)"/><circle class="a" cx="4" cy="4" r="4" transform="translate(348 1495)"/><circle class="a" cx="4" cy="4" r="4" transform="translate(368 1495)"/><ellipse class="a" cx="4" cy="4.5" rx="4" ry="4.5" transform="translate(9 1518)"/><ellipse class="a" cx="4" cy="4.5" rx="4" ry="4.5" transform="translate(29 1518)"/><ellipse class="a" cx="4" cy="4.5" rx="4" ry="4.5" transform="translate(49 1518)"/><ellipse class="a" cx="4" cy="4.5" rx="4" ry="4.5" transform="translate(69 1518)"/><ellipse class="a" cx="4" cy="4.5" rx="4" ry="4.5" transform="translate(89 1518)"/><ellipse class="a" cx="4" cy="4.5" rx="4" ry="4.5" transform="translate(109 1518)"/><ellipse class="a" cx="4" cy="4.5" rx="4" ry="4.5" transform="translate(129 1518)"/><circle class="a" cx="4.5" cy="4.5" r="4.5" transform="translate(148 1518)"/><circle class="a" cx="4.5" cy="4.5" r="4.5" transform="translate(168 1518)"/><circle class="a" cx="4.5" cy="4.5" r="4.5" transform="translate(188 1518)"/><circle class="a" cx="4.5" cy="4.5" r="4.5" transform="translate(208 1518)"/><ellipse class="a" cx="4" cy="4.5" rx="4" ry="4.5" transform="translate(228 1518)"/><ellipse class="a" cx="4" cy="4.5" rx="4" ry="4.5" transform="translate(248 1518)"/><ellipse class="a" cx="4" cy="4.5" rx="4" ry="4.5" transform="translate(268 1518)"/><ellipse class="a" cx="4" cy="4.5" rx="4" ry="4.5" transform="translate(288 1518)"/><ellipse class="a" cx="4" cy="4.5" rx="4" ry="4.5" transform="translate(308 1518)"/><ellipse class="a" cx="4" cy="4.5" rx="4" ry="4.5" transform="translate(328 1518)"/><ellipse class="a" cx="4" cy="4.5" rx="4" ry="4.5" transform="translate(348 1518)"/><ellipse class="a" cx="4" cy="4.5" rx="4" ry="4.5" transform="translate(368 1518)"/><circle class="a" cx="4" cy="4" r="4" transform="translate(9 1542)"/><circle class="a" cx="4" cy="4" r="4" transform="translate(29 1542)"/><circle class="a" cx="4" cy="4" r="4" transform="translate(49 1542)"/><circle class="a" cx="4" cy="4" r="4" transform="translate(69 1542)"/><circle class="a" cx="4" cy="4" r="4" transform="translate(89 1542)"/><circle class="a" cx="4" cy="4" r="4" transform="translate(109 1542)"/><circle class="a" cx="4" cy="4" r="4" transform="translate(129 1542)"/><ellipse class="a" cx="4.5" cy="4" rx="4.5" ry="4" transform="translate(148 1542)"/><ellipse class="a" cx="4.5" cy="4" rx="4.5" ry="4" transform="translate(168 1542)"/><ellipse class="a" cx="4.5" cy="4" rx="4.5" ry="4" transform="translate(188 1542)"/><ellipse class="a" cx="4.5" cy="4" rx="4.5" ry="4" transform="translate(208 1542)"/><circle class="a" cx="4" cy="4" r="4" transform="translate(228 1542)"/><circle class="a" cx="4" cy="4" r="4" transform="translate(248 1542)"/><circle class="a" cx="4" cy="4" r="4" transform="translate(268 1542)"/><circle class="a" cx="4" cy="4" r="4" transform="translate(288 1542)"/><circle class="a" cx="4" cy="4" r="4" transform="translate(308 1542)"/><circle class="a" cx="4" cy="4" r="4" transform="translate(328 1542)"/><circle class="a" cx="4" cy="4" r="4" transform="translate(348 1542)"/><circle class="a" cx="4" cy="4" r="4" transform="translate(368 1542)"/><circle class="a" cx="4" cy="4" r="4" transform="translate(9 1565)"/><circle class="a" cx="4" cy="4" r="4" transform="translate(29 1565)"/><circle class="a" cx="4" cy="4" r="4" transform="translate(49 1565)"/><circle class="a" cx="4" cy="4" r="4" transform="translate(69 1565)"/><circle class="a" cx="4" cy="4" r="4" transform="translate(89 1565)"/><circle class="a" cx="4" cy="4" r="4" transform="translate(109 1565)"/><circle class="a" cx="4" cy="4" r="4" transform="translate(129 1565)"/><ellipse class="a" cx="4.5" cy="4" rx="4.5" ry="4" transform="translate(148 1565)"/><ellipse class="a" cx="4.5" cy="4" rx="4.5" ry="4" transform="translate(168 1565)"/><ellipse class="a" cx="4.5" cy="4" rx="4.5" ry="4" transform="translate(188 1565)"/><ellipse class="a" cx="4.5" cy="4" rx="4.5" ry="4" transform="translate(208 1565)"/><circle class="a" cx="4" cy="4" r="4" transform="translate(228 1565)"/><circle class="a" cx="4" cy="4" r="4" transform="translate(248 1565)"/><circle class="a" cx="4" cy="4" r="4" transform="translate(268 1565)"/><circle class="a" cx="4" cy="4" r="4" transform="translate(288 1565)"/><circle class="a" cx="4" cy="4" r="4" transform="translate(308 1565)"/><circle class="a" cx="4" cy="4" r="4" transform="translate(328 1565)"/><circle class="a" cx="4" cy="4" r="4" transform="translate(348 1565)"/><circle class="a" cx="4" cy="4" r="4" transform="translate(368 1565)"/><circle class="a" cx="4" cy="4" r="4" transform="translate(-11 1286)"/><circle class="a" cx="4" cy="4" r="4" transform="translate(-11 1309)"/><ellipse class="a" cx="4" cy="4.5" rx="4" ry="4.5" transform="translate(-11 1332)"/><circle class="a" cx="4" cy="4" r="4" transform="translate(-11 1356)"/><circle class="a" cx="4" cy="4" r="4" transform="translate(-11 1379)"/><circle class="a" cx="4" cy="4" r="4" transform="translate(-11 1402)"/><ellipse class="a" cx="4" cy="4.5" rx="4" ry="4.5" transform="translate(-11 1425)"/><circle class="a" cx="4" cy="4" r="4" transform="translate(-11 1449)"/><circle class="a" cx="4" cy="4" r="4" transform="translate(-11 1472)"/><circle class="a" cx="4" cy="4" r="4" transform="translate(-11 1495)"/><ellipse class="a" cx="4" cy="4.5" rx="4" ry="4.5" transform="translate(-11 1518)"/><circle class="a" cx="4" cy="4" r="4" transform="translate(-11 1542)"/><circle class="a" cx="4" cy="4" r="4" transform="translate(-11 1565)"/></g></svg>